HIERARCHY
ROOT joint_Root
{
  OFFSET 0 0 0
  CHANNELS 6 Xposition Yposition Zposition Zrotation Xrotation Yrotation
  JOINT Hips
  {
    OFFSET 0 93.9241 -3
    CHANNELS 6 Xposition Yposition Zposition Zrotation Xrotation Yrotation
    JOINT Spine
    {
      OFFSET 15.7357 0 0
      CHANNELS 6 Xposition Yposition Zposition Zrotation Xrotation Yrotation
      JOINT Chest
      {
        OFFSET 8.98455 -0.406207 0
        CHANNELS 6 Xposition Yposition Zposition Zrotation Xrotation Yrotation
        JOINT Neck
        {
          OFFSET 16.3773 0 0
          CHANNELS 6 Xposition Yposition Zposition Zrotation Xrotation Yrotation
          JOINT Head
          {
            OFFSET 6.45672 0 0
            CHANNELS 6 Xposition Yposition Zposition Zrotation Xrotation Yrotation
            End Site
            {
              OFFSET 0 0 0
            }
          }
        }
        JOINT Shoulder_L
        {
          OFFSET 12.9942 -0.242716 4.98039
          CHANNELS 6 Xposition Yposition Zposition Zrotation Xrotation Yrotation
          JOINT UpperArm_L
          {
            OFFSET 5.34809 0 0
            CHANNELS 6 Xposition Yposition Zposition Zrotation Xrotation Yrotation
            JOINT LowerArm_L
            {
              OFFSET 24.3286 1.87007e-05 0
              CHANNELS 6 Xposition Yposition Zposition Zrotation Xrotation Yrotation
              JOINT Hand_L
              {
                OFFSET 22.2916 0 0
                CHANNELS 6 Xposition Yposition Zposition Zrotation Xrotation Yrotation
                End Site
                {
                  OFFSET 0 0 0
                }
              }
            }
          }
        }
        JOINT Shoulder_R
        {
          OFFSET 12.9945 -0.242716 -4.98039
          CHANNELS 6 Xposition Yposition Zposition Zrotation Xrotation Yrotation
          JOINT UpperArm_R
          {
            OFFSET -5.34813 0 0
            CHANNELS 6 Xposition Yposition Zposition Zrotation Xrotation Yrotation
            JOINT LowerArm_R
            {
              OFFSET -24.3289 0.000322201 0
              CHANNELS 6 Xposition Yposition Zposition Zrotation Xrotation Yrotation
              JOINT Hand_R
              {
                OFFSET -22.2915 -0.000108084 0
                CHANNELS 6 Xposition Yposition Zposition Zrotation Xrotation Yrotation
                End Site
                {
                  OFFSET 0 0 0
                }
              }
            }
          }
        }
      }
    }
    JOINT UpperLeg_L
    {
      OFFSET -2.19248 -6.46944 0
      CHANNELS 6 Xposition Yposition Zposition Zrotation Xrotation Yrotation
      JOINT LowerLeg_L
      {
        OFFSET 39.0811 0 -1.23785e-05
        CHANNELS 6 Xposition Yposition Zposition Zrotation Xrotation Yrotation
        JOINT Foot_L
        {
          OFFSET 40.9854 0 -1.26872e-05
          CHANNELS 6 Xposition Yposition Zposition Zrotation Xrotation Yrotation
          JOINT Toes_L
          {
            OFFSET 11.7543 0 0
            CHANNELS 6 Xposition Yposition Zposition Zrotation Xrotation Yrotation
            End Site
            {
              OFFSET 0 0 0
            }
          }
        }
      }
    }
    JOINT UpperLeg_R
    {
      OFFSET -2.19251 6.46944 0
      CHANNELS 6 Xposition Yposition Zposition Zrotation Xrotation Yrotation
      JOINT LowerLeg_R
      {
        OFFSET -39.0811 -0.00228153 -0.0401928
        CHANNELS 6 Xposition Yposition Zposition Zrotation Xrotation Yrotation
        JOINT Foot_R
        {
          OFFSET -40.9854 0 0
          CHANNELS 6 Xposition Yposition Zposition Zrotation Xrotation Yrotation
          JOINT Toes_R
          {
            OFFSET -11.7543 0 0
            CHANNELS 6 Xposition Yposition Zposition Zrotation Xrotation Yrotation
            End Site
            {
              OFFSET 0 0 0
            }
          }
        }
      }
    }
  }
}
MOTION
Frames:	4
Frame Time:	0.0333333
0 0 0 0 0 -0 -5.98857 84.9146 -73.0779 82.8344 -1.7494 -2.03171 15.7357 5.1072e-06 -5.51765e-07 77.4877 78.5936 -75.7619 8.98455 -0.406207 -4.3199e-07 14.6169 -4.7782 4.06831 16.3773 -1.3905e-06 -6.99897e-07 -3.55278 -0.628826 -2.75299 6.45672 -1.25837e-06 -1.02172e-07 5.49085 0.371613 -3.69198 12.9942 -0.242716 4.98039 -90.2757 4.77906 -101.698 5.34809 -7.22636e-06 -6.2814e-07 -76.8068 10.1095 0.790896 24.3286 1.87007e-05 4.90208e-06 22.9807 -13.731 -119.238 22.2916 -9.88446e-07 4.63217e-06 13.4277 4.58705 15.0441 12.9945 -0.242716 -4.98039 89.4391 3.41581 -95.6731 -5.34813 -1.25947e-06 -3.79883e-06 -65.7727 5.19487 36.0975 -24.3289 0.000322201 -8.65921e-06 18.6524 -0.800104 -92.3757 -22.2915 -0.000108084 -4.47941e-06 39.819 5.31481 -0.339305 -2.19248 -6.46944 -1.22534e-07 -174.46 4.2985 -14.6941 39.0811 -6.73843e-06 -1.23785e-05 -0.372873 0.0997504 74.2241 40.9854 -6.48686e-06 -1.26872e-05 3.36792 -3.81878 -37.5625 11.7543 -2.30145e-07 3.05095e-06 0.473795 -0.578364 -22.0263 -2.19251 6.46944 -1.45247e-06 -168.157 1.32394 158.46 -39.0811 -0.00228153 -0.0401928 -0.120171 0.132429 50.32 -40.9854 7.72618e-06 5.99936e-06 1.75742 -7.87502 -81.1605 -11.7543 -5.6619e-06 -5.58687e-06 0.0022513 -0.00231478 -16.5918 
0 0 0 0 0 -0 -5.80641 86.3578 -68.4478 83.9894 -1.07823 -2.30841 15.7357 5.1072e-06 -5.51765e-07 81.4134 79.1543 -80.1412 8.98455 -0.406207 -4.3199e-07 13.7336 -3.13655 2.92354 16.3773 -1.3905e-06 -6.99897e-07 -0.552645 -0.443622 -2.67188 6.45672 -1.25837e-06 -1.02172e-07 7.53855 -0.381877 -3.73542 12.9942 -0.242716 4.98039 -90.4829 5.29027 -99.7746 5.34809 -7.22636e-06 -6.2814e-07 -79.5534 10.9423 9.7052 24.3286 1.87007e-05 4.90208e-06 23.2836 -11.9831 -115.755 22.2916 -9.88446e-07 4.63217e-06 10.9663 3.62978 29.4027 12.9945 -0.242716 -4.98039 89.0706 5.73562 -95.7785 -5.34813 -1.25947e-06 -3.79883e-06 -68.1524 4.90483 26.9819 -24.3289 0.000322201 -8.65921e-06 25.6154 -0.127265 -90.2653 -22.2915 -0.000108084 -4.47941e-06 29.8447 5.25961 1.33287 -2.19248 -6.46944 -1.22533e-07 -175.856 5.19215 -19.7071 39.0811 -6.73843e-06 -1.23785e-05 -0.405079 0.103074 74.7181 40.9854 -6.48686e-06 -1.26872e-05 5.12676 -6.88175 -40.9738 11.7543 -2.30145e-07 3.05095e-06 0.469602 -0.572742 -21.9753 -2.19251 6.46944 -1.45247e-06 -169.43 2.40063 164.171 -39.0811 -0.00228153 -0.0401928 0.0887677 -0.0526862 44.6615 -40.9854 7.72618e-06 5.99936e-06 2.8671 -8.16659 -80.0417 -11.7543 -5.6619e-06 -5.58687e-06 -0.458362 -0.678317 -17.6647 
0 0 0 0 0 -0 -5.25711 88.8223 -63.9093 85.6536 -1.85659 -3.25806 15.7357 5.1072e-06 -5.51765e-07 88.8115 79.7642 -88.2379 8.98455 -0.406207 -4.3199e-07 12.7036 -0.395835 1.19126 16.3773 -1.3905e-06 -6.99897e-07 2.2242 0.289464 -2.66424 6.45672 -1.25837e-06 -1.02172e-07 11.1857 -1.49188 -3.73588 12.9942 -0.242716 4.98039 -90.5291 3.93459 -97.3278 5.34809 -7.22636e-06 -6.2814e-07 -79.6369 11.0836 15.9337 24.3286 1.87007e-05 4.90208e-06 26.0746 -11.8366 -112.746 22.2916 -9.88446e-07 4.63217e-06 -1.46006 3.71798 27.8663 12.9945 -0.242716 -4.98039 89.213 6.21868 -97.7738 -5.34813 -1.25947e-06 -3.79883e-06 -71.4676 4.64724 17.5825 -24.3289 0.000322201 -8.65921e-06 37.7349 -0.755585 -90.9733 -22.2915 -0.000108084 -4.47941e-06 11.6296 5.17449 3.38275 -2.19248 -6.46944 -1.22534e-07 -177.87 4.08921 -23.2286 39.0811 -6.73843e-06 -1.23785e-05 -0.329537 0.117189 69.436 40.9854 -6.48686e-06 -1.26872e-05 5.73168 -10.4847 -46.3976 11.7543 -2.30145e-07 3.05095e-06 0.440975 -0.534479 -21.6272 -2.19251 6.46944 -1.45247e-06 -171.771 0.654648 169.308 -39.0811 -0.00228153 -0.0401928 0.044311 -0.0196158 37.2131 -40.9854 7.72618e-06 5.99936e-06 1.90238 -8.27139 -72.0313 -11.7543 -5.6619e-06 -5.58687e-06 -0.268863 -1.29887 -24.2851 
0 0 0 0 0 -0 -4.33905 91.5589 -59.5846 88.0455 -3.57618 -5.22543 15.7357 5.1072e-06 -5.51765e-07 99.5712 80.4325 -99.9537 8.98455 -0.406207 -4.3199e-07 11.1255 3.14625 -1.07122 16.3773 -1.3905e-06 -6.99897e-07 5.60246 1.24681 -2.4729 6.45672 -1.25837e-06 -1.02172e-07 15.3888 -2.89872 -3.22792 12.9942 -0.242716 4.98039 -90.3699 1.98195 -94.4111 5.34809 -7.22636e-06 -6.2814e-07 -77.5966 14.4253 19.3763 24.3286 1.87007e-05 4.90208e-06 34.5274 -14.4937 -109.991 22.2916 -9.88446e-07 4.63217e-06 -9.29353 4.47352 16.9925 12.9945 -0.242716 -4.98039 89.5318 5.39638 -100.037 -5.34813 -1.25947e-06 -3.79883e-06 -73.3686 7.81675 8.68081 -24.3289 0.000322201 -8.65921e-06 43.175 -1.99721 -92.1277 -22.2915 -0.000108084 -4.47941e-06 4.33933 5.08003 5.54891 -2.19248 -6.46944 -1.22534e-07 179.187 2.31324 -25.98 39.0811 -6.73843e-06 -1.23785e-05 -0.225744 0.129981 58.9764 40.9854 -6.48686e-06 -1.26872e-05 6.13136 -13.1014 -48.8723 11.7543 -2.30145e-07 3.05095e-06 0.448507 -0.544528 -21.7187 -2.19251 6.46944 -1.45247e-06 -175.136 -1.2135 172.957 -39.0811 -0.00228153 -0.0401928 0.0203634 0.00104612 29.5626 -40.9854 7.72618e-06 5.99936e-06 2.85577 -8.55972 -62.7124 -11.7543 -5.6619e-06 -5.58687e-06 0.726833 -1.53832 -26.1389 
